# xmcd
#
# Track frame offsets:
#	150
#	16842
#	33477
#	48922
#	66069
#	84931
#	102367
#	121795
#	138646
#	153305
#	171967
#	188918
#	210221
#	226238
#	246046
#	262917
#	279031
#	297133
#	312901
#
# Disc length: 4383 seconds
#
# Revision: 2
# Processed by: cddbd v1.5.2PL0 Copyright (c) Steve Scherf et al.
# Submitted via: EasyCDDAExtractor 16.0.9.1
#
DISCID=f1111d13
DTITLE=Various Artist - Viva Eurochart Vol.6
DYEAR=1999
DGENRE=Dance, Pop
TTITLE0=Lou Bega - Mambo No.5
TTITLE1=Eiffel 65 - Blue
TTITLE2=Will Smith - Wild Wild West
TTITLE3=Jennifer Lopez - If You Had My Love
TTITLE4=Ricky Martin - Livin' La Vida Loca
TTITLE5=Ann Lee - 2 Times
TTITLE6=W. Houston - My Love Is Your Love
TTITLE7=Loona - Mamboleo
TTITLE8=Vengaboys - We're Going Ibiza
TTITLE9=Britney Spears - Sometimes
TTITLE10=Shana Twain - That Don't Impress Mel Much
TTITLE11=Sacha - I Fell Lonely
TTITLE12=Mojito - Lo La
TTITLE13=Zebda - Tomber Le Chemise
TTITLE14=Madonna - Beautiful Stranger
TTITLE15=Backstreet boys - I Want If That Way
TTITLE16=Wandue Project - King Of My Castle
TTITLE17=Enrigue Iglesias - Bailamos
TTITLE18=Jessica - I Go
EXTD=
EXTT0=
EXTT1=
EXTT2=
EXTT3=
EXTT4=
EXTT5=
EXTT6=
EXTT7=
EXTT8=
EXTT9=
EXTT10=
EXTT11=
EXTT12=
EXTT13=
EXTT14=
EXTT15=
EXTT16=
EXTT17=
EXTT18=
PLAYORDER=
